<svg width="48" height="48" viewBox="0 0 48 48" fill="none" xmlns="http://www.w3.org/2000/svg">
<path d="M40.4709 5.92818C40.4709 5.92818 40.6554 6.11303 40.9548 6.41205L41.9993 7.30607L45.2491 2.80418C45.8385 1.98727 46.156 1.0063 46.156 0H46.1553C45.1486 0 44.1676 0.316784 43.3518 0.905746L38.5619 4.36353L39.6706 5.31237C39.956 5.48891 40.2301 5.68662 40.4709 5.92818Z" fill="#00CCDB"/>
<path d="M8.22051 35.1343C8.22051 32.4201 9.27256 29.9573 10.9805 28.1102L10.5692 27.1841C9.91746 25.7204 8.46207 24.7742 6.86 24.7742C4.6221 24.7742 2.80116 26.5951 2.80116 28.8334V30.4196C2.80116 33.6967 2.02621 36.9794 0.559854 39.9121L0 41.0322H1.80998C4.48715 41.0322 6.97946 39.7175 8.51537 37.5646C8.32334 36.7719 8.22051 35.9573 8.22051 35.1343Z" fill="#00CCDB"/>
<path d="M10.5431 35.1344C10.5431 36.203 10.7529 37.2464 11.1653 38.2345L12.5946 37.6376C12.2608 36.8385 12.0915 35.997 12.0915 35.1344C12.0915 31.556 15.0023 28.6452 18.5806 28.6452H19.0592V27.0968H18.5806C14.1483 27.0968 10.5431 30.7024 10.5431 35.1344Z" fill="#2A2349"/>
<path d="M46.196 10.5586L41.0182 5.3808C40.1635 4.52608 39.0393 4.00101 37.8062 3.891L38.5841 0H36.7401L36.6207 0.0393145C35.0398 0.566658 33.8339 1.79599 33.3175 3.36139C31.5219 2.32031 28.9014 2.15776 26.6934 3.07182C24.3013 4.063 22.9302 6.04725 22.9302 8.51613C22.9302 10.2365 23.4976 11.8049 24.2971 13.162C22.5631 13.1836 20.8367 13.7514 19.5971 14.7569C18.2321 15.8657 17.5108 17.4054 17.5108 19.2123C17.5108 19.3934 17.5248 19.5748 17.5369 19.7559C15.6494 19.108 13.2951 19.2479 11.4125 20.2288C9.47136 21.2393 8.36602 22.937 8.24505 25.0282C8.84195 25.2456 9.3795 25.5987 9.81423 26.0625C9.79193 25.8425 9.76887 25.6221 9.76887 25.4059C9.76887 23.2768 11.0507 22.162 12.127 21.6022C13.9332 20.6609 16.3446 20.6802 17.8752 21.6079C18.116 22.4089 18.4808 23.208 18.9617 24H18.5806C12.4404 24 7.44629 28.9952 7.44629 35.1343C7.44629 37.1038 7.97099 39.0442 8.96292 40.745L13.1953 48H19.0592V41.0323H31.4463V48H36.5697L37.8659 45.4079C39.7439 41.6522 40.7366 37.4471 40.7366 33.2476C40.7366 31.6909 40.6009 30.1232 40.334 28.5885L38.3728 17.3124L38.9062 17.8458C39.8804 18.8192 41.1732 19.3548 42.5496 19.3548H42.6339C43.988 19.3548 45.2616 18.8275 46.2195 17.8707C47.1763 16.9132 47.7044 15.6404 47.7044 14.2164C47.7044 12.8298 47.1683 11.5301 46.196 10.5586ZM27.2865 4.50265C28.7404 3.90045 30.4438 3.87853 31.7684 4.3401C30.209 5.09047 29.1237 6.67288 29.1237 8.51613V16.2853C27.4166 14.918 24.4785 12.051 24.4785 8.51613C24.4785 6.03629 26.2375 4.937 27.2865 4.50265ZM19.0592 19.2123C19.0592 17.8692 19.5684 16.7744 20.5728 15.959C21.8184 14.9482 23.7044 14.5116 25.4463 14.8034C26.7607 16.4286 28.241 17.5891 28.988 18.1225C28.7967 19.1465 28.3975 20.1215 27.7817 20.9845C26.4333 22.8727 24.243 24 21.9227 24H20.8204C19.6561 22.3998 19.0592 20.791 19.0592 19.2123ZM45.1247 16.7752C45.051 16.8482 44.9667 16.9037 44.8877 16.9695C43.8432 16.7397 43.0592 15.8044 43.0592 14.7097H41.5108C41.5108 15.9398 42.1054 17.0538 43.0267 17.7686C42.8959 17.7834 42.7674 17.8065 42.6339 17.8065H42.5496C41.5872 17.8065 40.6822 17.4311 40.0017 16.7514L34.8247 11.5736C34.2006 10.951 33.8282 10.1235 33.7757 9.24382L32.2303 9.33682C32.3063 10.5949 32.8389 11.7785 33.7307 12.6687L36.4714 15.4094L38.8094 28.8542C39.0612 30.3013 39.189 31.779 39.189 33.2476C39.189 37.2078 38.253 41.1733 36.4816 44.715L35.6129 46.4516H32.9947V32.5161H31.4463V39.4839H19.9547C21.3776 37.5507 22.156 35.2281 22.156 32.7815V32.5161H20.6076V32.7815C20.6076 35.3993 19.5884 37.8603 17.7376 39.7107L17.5108 39.9375V46.4516H14.084L10.3 39.9647C9.44604 38.5006 8.99468 36.8309 8.99468 35.1343C8.99468 29.8492 13.2951 25.5484 18.5806 25.5484H21.9227C24.7424 25.5484 27.4033 24.1788 29.0417 21.885C30.1085 20.3921 30.6713 18.6332 30.6713 16.7994V8.51613C30.6713 6.80822 32.0602 5.41935 33.7681 5.41935H34.3718L34.6992 4.11177C34.968 3.03856 35.6881 2.16079 36.6664 1.68939L35.9217 5.41066L37.5918 5.42692C38.4711 5.48059 39.299 5.8537 39.9227 6.47631L45.1005 11.6541C45.7817 12.333 46.156 13.2433 46.156 14.2855C46.156 15.2261 45.7889 16.111 45.1247 16.7752Z" fill="#2A2349"/>
<path d="M36.0915 33.2476C36.0915 34.7582 35.9357 36.2828 35.6276 37.7797L37.1443 38.0912C37.4732 36.4926 37.6399 34.8625 37.6399 33.2476C37.6399 31.8712 37.5204 30.4824 37.2838 29.1188L36.3701 23.8669L34.844 24.1323L35.7577 29.3846C35.9792 30.6597 36.0915 31.9593 36.0915 33.2476Z" fill="#2A2349"/>
<path d="M40.7366 9.29031C40.7366 9.71785 40.39 10.0645 39.9624 10.0645C39.5349 10.0645 39.1882 9.71785 39.1882 9.29031C39.1882 8.86276 39.5349 8.51611 39.9624 8.51611C40.39 8.51611 40.7366 8.86276 40.7366 9.29031Z" fill="#2A2349"/>
</svg>
